HIERARCHY
ROOT hip
{
  OFFSET 0 0 0
  CHANNELS 6 Xposition Yposition Zposition Zrotation Yrotation Xrotation
  JOINT abdomen
  {
    OFFSET 0 20.6881 -0.73152
    CHANNELS 3 Zrotation Xrotation Yrotation
    JOINT chest
    {
      OFFSET 0 11.7043 -0.48768
      CHANNELS 3 Zrotation Xrotation Yrotation
      JOINT neck
      {
        OFFSET 0 22.1894 -2.19456
        CHANNELS 3 Zrotation Xrotation Yrotation
        JOINT head
        {
          OFFSET -0.24384 7.07133 1.2192
          CHANNELS 3 Zrotation Xrotation Yrotation
          JOINT leftEye
          {
            OFFSET 4.14528 8.04674 8.04672
            CHANNELS 3 Zrotation Xrotation Yrotation
            End Site
            {
              OFFSET 1 0 0
            }
          }
          JOINT rightEye
          {
            OFFSET -3.6576 8.04674 8.04672
            CHANNELS 3 Zrotation Xrotation Yrotation
            End Site
            {
              OFFSET 1 0 0
            }
          }
        }
      }
      JOINT rCollar
      {
        OFFSET -2.68224 19.2634 -4.8768
        CHANNELS 3 Zrotation Xrotation Yrotation
        JOINT rShldr
        {
          OFFSET -8.77824 -1.95073 1.46304
          CHANNELS 3 Zrotation Xrotation Yrotation
          JOINT rForeArm
          {
            OFFSET -28.1742 -1.7115 0.48768
            CHANNELS 3 Zrotation Xrotation Yrotation
            JOINT rHand
            {
              OFFSET -22.5879 0.773209 7.07136
              CHANNELS 3 Zrotation Xrotation Yrotation
              JOINT rThumb1
              {
                OFFSET -1.2192 -0.487915 3.41376
                CHANNELS 3 Zrotation Xrotation Yrotation
                JOINT rThumb2
                {
                  OFFSET -3.37035 -0.52449 3.41376
                  CHANNELS 3 Zrotation Xrotation Yrotation
                  End Site
                  {
                    OFFSET -1.78271 -1.18214 1.43049
                  }
                }
              }
              JOINT rIndex1
              {
                OFFSET -7.75947 0.938293 5.60832
                CHANNELS 3 Zrotation Xrotation Yrotation
                JOINT rIndex2
                {
                  OFFSET -2.54057 -0.884171 1.56538
                  CHANNELS 3 Zrotation Xrotation Yrotation
                  End Site
                  {
                    OFFSET -1.62519 -0.234802 1.16502
                  }
                }
              }
              JOINT rMid1
              {
                OFFSET -8.24714 1.18213 3.41376
                CHANNELS 3 Zrotation Xrotation Yrotation
                JOINT rMid2
                {
                  OFFSET -3.10165 -0.590103 1.0647
                  CHANNELS 3 Zrotation Xrotation Yrotation
                  End Site
                  {
                    OFFSET -2.48547 -0.328903 0.83742
                  }
                }
              }
              JOINT rRing1
              {
                OFFSET -8.82822 0.546677 1.51678
                CHANNELS 3 Zrotation Xrotation Yrotation
                JOINT rRing2
                {
                  OFFSET -2.60934 -0.819778 -0.0198488
                  CHANNELS 3 Zrotation Xrotation Yrotation
                  End Site
                  {
                    OFFSET -2.33842 -0.294052 0.168128
                  }
                }
              }
              JOINT rPinky1
              {
                OFFSET -8.27202 -0.0477905 -0.4584
                CHANNELS 3 Zrotation Xrotation Yrotation
                JOINT rPinky2
                {
                  OFFSET -1.82734 -0.647385 -0.700984
                  CHANNELS 3 Zrotation Xrotation Yrotation
                  End Site
                  {
                    OFFSET -1.69225 -0.51767 -0.607171
                  }
                }
              }
            }
          }
        }
      }
      JOINT lCollar
      {
        OFFSET 2.68224 19.2634 -4.8768
        CHANNELS 3 Zrotation Xrotation Yrotation
        JOINT lShldr
        {
          OFFSET 8.77824 -1.95073 1.46304
          CHANNELS 3 Zrotation Xrotation Yrotation
          JOINT lForeArm
          {
            OFFSET 28.1742 -1.7115 0.48768
            CHANNELS 3 Zrotation Xrotation Yrotation
            JOINT lHand
            {
              OFFSET 22.5879 0.773209 7.07136
              CHANNELS 3 Zrotation Xrotation Yrotation
              JOINT lThumb1
              {
                OFFSET 1.2192 -0.487915 3.41376
                CHANNELS 3 Zrotation Xrotation Yrotation
                JOINT lThumb2
                {
                  OFFSET 3.37035 -0.52449 3.41376
                  CHANNELS 3 Zrotation Xrotation Yrotation
                  End Site
                  {
                    OFFSET 1.78271 -1.18214 1.43049
                  }
                }
              }
              JOINT lIndex1
              {
                OFFSET 7.75947 0.938293 5.60832
                CHANNELS 3 Zrotation Xrotation Yrotation
                JOINT lIndex2
                {
                  OFFSET 2.54057 -0.884171 1.56538
                  CHANNELS 3 Zrotation Xrotation Yrotation
                  End Site
                  {
                    OFFSET 1.62519 -0.234802 1.16502
                  }
                }
              }
              JOINT lMid1
              {
                OFFSET 8.24714 1.18213 3.41376
                CHANNELS 3 Zrotation Xrotation Yrotation
                JOINT lMid2
                {
                  OFFSET 3.10165 -0.590103 1.0647
                  CHANNELS 3 Zrotation Xrotation Yrotation
                  End Site
                  {
                    OFFSET 2.48547 -0.328903 0.83742
                  }
                }
              }
              JOINT lRing1
              {
                OFFSET 8.82822 0.546677 1.51678
                CHANNELS 3 Zrotation Xrotation Yrotation
                JOINT lRing2
                {
                  OFFSET 2.60934 -0.819778 -0.0198488
                  CHANNELS 3 Zrotation Xrotation Yrotation
                  End Site
                  {
                    OFFSET 2.33842 -0.294052 0.168128
                  }
                }
              }
              JOINT lPinky1
              {
                OFFSET 8.27202 -0.0477905 -0.4584
                CHANNELS 3 Zrotation Xrotation Yrotation
                JOINT lPinky2
                {
                  OFFSET 1.82734 -0.647385 -0.700984
                  CHANNELS 3 Zrotation Xrotation Yrotation
                  End Site
                  {
                    OFFSET 1.69225 -0.51767 -0.607171
                  }
                }
              }
            }
          }
        }
      }
    }
  }
  JOINT rButtock
  {
    OFFSET -8.77824 4.35084 1.2192
    CHANNELS 3 Zrotation Xrotation Yrotation
    JOINT rThigh
    {
      OFFSET 0 -1.70687 -2.19456
      CHANNELS 3 Zrotation Xrotation Yrotation
      JOINT rShin
      {
        OFFSET 0 -36.8199 0.73152
        CHANNELS 3 Zrotation Xrotation Yrotation
        JOINT rFoot
        {
          OFFSET 0.73152 -45.1104 -5.12064
          CHANNELS 3 Zrotation Xrotation Yrotation
          End Site
          {
            OFFSET -1.1221 -3.69964 12.103
          }
        }
      }
    }
  }
  JOINT lButtock
  {
    OFFSET 8.77824 4.35084 1.2192
    CHANNELS 3 Zrotation Xrotation Yrotation
    JOINT lThigh
    {
      OFFSET 0 -1.70687 -2.19456
      CHANNELS 3 Zrotation Xrotation Yrotation
      JOINT lShin
      {
        OFFSET 0 -36.8199 0.73152
        CHANNELS 3 Zrotation Xrotation Yrotation
        JOINT lFoot
        {
          OFFSET -0.73152 -45.1104 -5.12064
          CHANNELS 3 Zrotation Xrotation Yrotation
          End Site
          {
            OFFSET 1.1221 -3.69964 12.103
          }
        }
      }
    }
  }
}
MOTION
Frames:	5
Frame Time:	0.03333
0.09239999926649034 65.2197003364563 -1.102999970316887 -2.202376127243042 -6.595676898956299 6.247687816619873 0.5503938794136047 13.67569351196289 5.770767688751221 0.649230420589447 -6.795262336730957 1.6299291849136353 -3.4044487476348877 15.545807838439941 -1.2291024923324585 2.648963212966919 -38.171905517578125 -1.561967134475708 -0.0 0.0 -0.0 -0.0 0.0 -0.0 -0.0 -0.0 -0.0 48.6963996887207 37.59980773925781 15.148296356201172 -21.3728084564209 -14.842470169067383 42.12860870361328 -0.12483221292495728 -10.023282051086426 -1.423435091972351 -0.0 -0.0 -0.0 -0.0 -0.0 -0.0 -0.0 -0.0 -0.0 7.730902194976807 5.47491455078125 0.4173222780227661 -0.0 -0.0 -0.0 2.905566453933716 0.9650754332542419 0.10300818830728531 -0.0 -0.0 -0.0 10.278596878051758 0.7318810820579529 0.026273518800735474 -0.0 -0.0 -0.0 2.221662998199463 -0.7334509491920471 -0.20832103490829468 -0.0 -0.0 -0.0 -75.90289306640625 33.82990264892578 -1.7681092023849487 20.031295776367188 -13.051203727722168 -38.75609588623047 0.0953541174530983 8.7739896774292 -1.2428770065307617 -0.0 0.0 -0.0 -0.0 0.0 -0.0 -0.0 0.0 -0.0 -7.730902194976807 5.47491455078125 -0.4173222780227661 -0.0 0.0 -0.0 -2.905566453933716 0.9650754332542419 -0.10300818830728531 -0.0 0.0 -0.0 -10.278596878051758 0.7318810820579529 -0.026273518800735474 -0.0 0.0 -0.0 -2.221662998199463 -0.7334509491920471 0.20832103490829468 -0.0 0.0 -0.0 -1.8466410636901855 -25.018983840942383 -7.407382488250732 -0.5853487253189087 53.41819763183594 1.8168917894363403 -9.834990501403809 -16.537599563598633 -27.82350730895996 0.0 0.0 0.0 21.57870101928711 -54.32630157470703 20.772300720214844 3.086400270462036 74.86990356445312 -3.3487672805786133 0.41263771057128906 1.6852906942367554 5.609395980834961
0.2068999980110675 65.69460034370422 -2.127999998629093 -1.9243037700653076 -5.744832515716553 6.486085891723633 0.20051710307598114 13.34901237487793 5.6074910163879395 0.7200337648391724 -6.83235502243042 1.5783758163452148 -3.525764226913452 15.380497932434082 -1.4840340614318848 2.7156882286071777 -37.95490264892578 -2.0514731407165527 -0.0 0.0 -0.0 -0.0 0.0 -0.0 -0.0 0.0 0.0 49.75340270996094 37.273094177246094 14.557402610778809 -21.067506790161133 -14.416179656982422 41.33940124511719 -0.12157943844795227 -9.893627166748047 -1.4046063423156738 -0.0 0.0 -0.0 -0.0 0.0 -0.0 -0.0 0.0 -0.0 7.730902194976807 5.47491455078125 0.4173222780227661 -0.0 0.0 -0.0 2.905566453933716 0.9650754332542419 0.10300818830728531 -0.0 0.0 -0.0 10.278596878051758 0.7318810820579529 0.026273518800735474 -0.0 0.0 -0.0 2.221662998199463 -0.7334509491920471 -0.20832103490829468 -0.0 0.0 0.0 -75.56459045410156 33.99930191040039 -2.4570794105529785 19.75249671936035 -12.703893661499023 -38.08209991455078 0.11245217174291611 9.51956844329834 -1.3504626750946045 -0.0 0.0 -0.0 -0.0 0.0 -0.0 -0.0 0.0 -0.0 -7.730902194976807 5.47491455078125 -0.4173222780227661 -0.0 0.0 -0.0 -2.905566453933716 0.9650754332542419 -0.10300818830728531 -0.0 0.0 -0.0 -10.278596878051758 0.7318810820579529 -0.026273518800735474 -0.0 0.0 -0.0 -2.221662998199463 -0.7334509491920471 0.20832103490829468 -0.0 0.0 -0.0 -2.223567485809326 -25.740678787231445 -8.092046737670898 -0.5661203861236572 52.717899322509766 1.7614328861236572 -9.401029586791992 -15.918501853942871 -27.187503814697266 0.0 0.0 0.0 20.83309555053711 -53.022499084472656 19.830795288085938 3.543201208114624 76.52522277832031 -3.8892769813537598 0.3197501003742218 2.0949368476867676 5.139904975891113
0.33290000283159316 66.16759896278381 -3.0969999730587006 -1.682695984840393 -4.932428359985352 6.71340799331665 -0.042567845433950424 13.057806968688965 5.451900959014893 0.7931811213493347 -6.956948757171631 1.5340449810028076 -3.7163643836975098 15.198103904724121 -1.682260274887085 2.987368583679199 -37.665401458740234 -2.3540666103363037 -0.0 0.0 -0.0 -0.0 0.0 -0.0 -0.0 -0.0 -0.0 50.84309005737305 37.0684928894043 13.90390396118164 -20.75119972229004 -13.986903190612793 40.53549575805664 -0.11688564717769623 -9.70305061340332 -1.377035140991211 -0.0 -0.0 -0.0 -0.0 -0.0 -0.0 -0.0 -0.0 -0.0 7.730902194976807 5.47491455078125 0.4173222780227661 -0.0 -0.0 -0.0 2.905566453933716 0.9650754332542419 0.10300818830728531 -0.0 -0.0 -0.0 10.278596878051758 0.7318810820579529 0.026273518800735474 -0.0 -0.0 -0.0 2.221662998199463 -0.7334509491920471 -0.20832103490829468 -0.0 -0.0 -0.0 -75.2599868774414 34.172096252441406 -3.084221839904785 19.482009887695312 -12.373672485351562 -37.43720626831055 0.13090606033802032 10.261216163635254 -1.4578988552093506 -0.0 0.0 -0.0 -0.0 0.0 -0.0 -0.0 0.0 -0.0 -7.730902194976807 5.47491455078125 -0.4173222780227661 -0.0 0.0 -0.0 -2.905566453933716 0.9650754332542419 -0.10300818830728531 -0.0 0.0 -0.0 -10.278596878051758 0.7318810820579529 -0.026273518800735474 -0.0 0.0 -0.0 -2.221662998199463 -0.7334509491920471 0.20832103490829468 -0.0 0.0 -0.0 -2.474198579788208 -26.356996536254883 -8.633133888244629 -0.5437880158424377 51.95980453491211 1.7089985609054565 -8.957122802734375 -15.239096641540527 -26.627092361450195 0.0 0.0 0.0 20.33627700805664 -51.621700286865234 18.861875534057617 3.8835973739624023 77.5824203491211 -4.323687553405762 0.2571009397506714 2.1370935440063477 4.892019271850586
0.47190000186674297 66.63399934768677 -4.004999995231628 -1.5103793144226074 -4.153332710266113 6.954710960388184 -0.17837978899478912 12.802103996276855 5.303778171539307 0.8681259155273438 -7.169101238250732 1.4966453313827515 -3.9760024547576904 14.998495101928711 -1.8235511779785156 3.4618895053863525 -37.30470275878906 -2.471259117126465 -0.0 0.0 -0.0 -0.0 0.0 -0.0 -0.0 0.0 -0.0 51.9696044921875 36.985511779785156 13.18469524383545 -20.423601150512695 -13.554208755493164 39.716793060302734 -0.11083735525608063 -9.451606750488281 -1.3406858444213867 -0.0 -0.0 -0.0 -0.0 -0.0 -0.0 -0.0 -0.0 -0.0 7.730902194976807 5.47491455078125 0.4173222780227661 -0.0 -0.0 -0.0 2.905566453933716 0.9650754332542419 0.10300818830728531 -0.0 -0.0 -0.0 10.278596878051758 0.7318810820579529 0.026273518800735474 -0.0 -0.0 -0.0 2.221662998199463 -0.7334509491920471 -0.20832103490829468 -0.0 0.0 -0.0 -74.98969268798828 34.3489990234375 -3.6492230892181396 19.220901489257812 -12.062292098999023 -36.82060241699219 0.1507222205400467 10.999011039733887 -1.5653550624847412 -0.0 -0.0 -0.0 -0.0 -0.0 -0.0 -0.0 -0.0 -0.0 -7.730902194976807 5.47491455078125 -0.4173222780227661 -0.0 -0.0 -0.0 -2.905566453933716 0.9650754332542419 -0.10300818830728531 -0.0 -0.0 -0.0 -10.278596878051758 0.7318810820579529 -0.026273518800735474 -0.0 -0.0 -0.0 -2.221662998199463 -0.7334509491920471 0.20832103490829468 -0.0 0.0 -0.0 -2.5898783206939697 -26.870420455932617 -9.026679039001465 -0.5198400020599365 51.14400863647461 1.6605587005615234 -8.502006530761719 -14.500788688659668 -26.14301109313965 0.0 0.0 0.0 20.09961700439453 -50.12169647216797 17.874814987182617 4.011690616607666 78.0425033569336 -4.556901454925537 0.21940407156944275 1.811435341835022 4.8661346435546875
0.6442999991122633 67.06129908561707 -4.865000024437904 -1.3290201425552368 -3.4392242431640625 7.178826808929443 -0.4002724885940552 12.545577049255371 5.170498371124268 0.9162843227386475 -7.274199962615967 1.458146572113037 -4.150228500366211 14.819307327270508 -2.0167219638824463 3.7434418201446533 -37.047096252441406 -2.7599990367889404 -0.0 0.0 -0.0 -0.0 0.0 -0.0 -0.0 0.0 -0.0 53.10749816894531 36.89470291137695 12.48310375213623 -20.117292404174805 -13.15960693359375 38.96680450439453 -0.10484424233436584 -9.195728302001953 -1.3036434650421143 -0.0 -0.0 -0.0 -0.0 -0.0 -0.0 -0.0 -0.0 -0.0 7.730902194976807 5.47491455078125 0.4173222780227661 -0.0 -0.0 -0.0 2.905566453933716 0.9650754332542419 0.10300818830728531 -0.0 -0.0 -0.0 10.278596878051758 0.7318810820579529 0.026273518800735474 -0.0 -0.0 -0.0 2.221662998199463 -0.7334509491920471 -0.20832103490829468 -0.0 0.0 -0.0 -74.61000061035156 34.49790954589844 -4.344911098480225 18.953699111938477 -11.75019359588623 -36.19629669189453 0.17507483065128326 11.839797973632812 -1.6883082389831543 -0.0 -0.0 -0.0 -0.0 -0.0 -0.0 -0.0 -0.0 -0.0 -7.730902194976807 5.47491455078125 -0.4173222780227661 -0.0 -0.0 -0.0 -2.905566453933716 0.9650754332542419 -0.10300818830728531 -0.0 -0.0 -0.0 -10.278596878051758 0.7318810820579529 -0.026273518800735474 -0.0 -0.0 -0.0 -2.221662998199463 -0.7334509491920471 0.20832103490829468 -0.0 0.0 -0.0 -2.746490716934204 -27.377004623413086 -9.239823341369629 -0.500096321105957 50.43699264526367 1.6228400468826294 -8.10211181640625 -13.743098258972168 -25.854299545288086 0.0 0.0 0.0 19.8418025970459 -48.63128662109375 16.771804809570312 3.967562437057495 78.06583404541016 -4.616090774536133 0.16695433855056763 1.5387256145477295 4.855606555938721
